<?xml version="1.0" encoding="UTF-8"?>
<svg id="Capa_1" xmlns="http://www.w3.org/2000/svg" version="1.1" viewBox="0 0 1200 1200">
  <!-- Generator: Adobe Illustrator 30.1.0, SVG Export Plug-In . SVG Version: 2.1.1 Build 136)  -->
  <defs>
    <style>
      .st0 {
        fill: #18356d;
      }
    </style>
  </defs>
  <g>
    <path class="st0" d="M196.9,618.7c-.6-1.2-1.2-2.4-1.7-3.6-.5-1.2-1-2.5-1.5-3.8l-44.4-111.2c0-.2,0-.4-.1-.7,0-.3-.1-.7-.1-1.1,0-1.8,1.1-2.7,3.5-2.7h18.1c2.1,0,3.6,1.1,4.4,3.2,1.2,3.5,2.8,7.7,4.5,12.5,1.8,4.8,3.7,9.8,5.7,15.1,2,5.3,4.1,10.8,6.2,16.4,2.1,5.6,4.2,11,6.2,16.2s3.9,10.2,5.6,14.8,3.2,8.5,4.4,11.8c1.2-3.3,2.7-7.2,4.4-11.8,1.7-4.6,3.5-9.5,5.4-14.8s4-10.7,6.1-16.2c2.1-5.6,4.1-11,6.1-16.4,2-5.3,3.9-10.4,5.6-15.1,1.8-4.8,3.3-8.9,4.6-12.5.8-2.1,2.3-3.2,4.6-3.2h17.8c2.5,0,3.8.9,3.8,2.8s0,.8-.1,1.1c0,.3-.1.6-.1.7l-44.3,111.2c-.4,1.1-.9,2.3-1.4,3.4-.4,1.2-1,2.3-1.5,3.3-.8,1.5-1.8,2.3-3.1,2.6-1.3.3-2.9.4-4.6.4h-9.7c-1.3,0-2.2-.2-2.8-.8s-.9-1.1-1.2-1.7h0Z"/>
    <path class="st0" d="M341.4,529.1c-.7,0-1.4-.2-2-.5s-1.3-.9-2.1-1.5h-.2c-1.1-1.2-2.5-2.3-4.1-3.6s-3.6-2.5-5.7-3.6c-2.1-1.1-4.3-2.1-6.7-2.9-2.4-.8-4.8-1.2-7.3-1.2s-6,.3-8.4,1.1c-2.4.7-4.5,1.7-6.1,2.9-1.6,1.2-2.9,2.6-3.7,4.3-.8,1.6-1.3,3.4-1.3,5.2s.6,3.8,1.9,5.3c1.3,1.5,3,2.9,5.2,4.1,2.2,1.2,4.7,2.3,7.5,3.3s5.8,2,8.9,2.9c3.5,1.1,7.1,2.2,10.6,3.5,3.5,1.2,6.8,2.6,10,4.2,3.2,1.5,6.2,3.3,8.9,5.2,2.8,1.9,5.1,4.1,7.1,6.5s3.6,5.2,4.7,8.2c1.1,3,1.7,6.4,1.7,10.2,0,6.1-1.2,11.7-3.7,16.7-2.5,5-5.9,9.2-10.3,12.7-4.4,3.5-9.5,6.2-15.4,8.1s-12.2,2.8-19,2.8-8.6-.5-12.9-1.5c-4.3-1-8.4-2.5-12.3-4.3-4-1.9-7.7-4.1-11.2-6.7-3.5-2.6-6.7-5.6-9.4-8.8h0c0,0-.2-.3-.2-.3-1.2-1.4-1.9-2.7-1.9-3.9s.2-1.2.5-1.8.8-1.2,1.5-1.9l2.8-2.8c.8-.7,1.8-1.5,2.7-2.5s1.9-1.7,2.9-2.5c1-.7,1.8-1.3,2.7-1.9s1.5-.8,2-.8c.8,0,1.5.2,2.2.8.7.5,1.2,1,1.7,1.4l.3.3h0c2,1.9,4.2,3.6,6.6,5.3,2.5,1.7,5,3.2,7.6,4.5,2.6,1.3,5.2,2.4,7.7,3.1,2.6.8,5,1.1,7.2,1.1s6-.4,8.7-1.2,5-1.9,7-3.3c2-1.4,3.5-3.2,4.6-5.2s1.7-4.3,1.7-6.8-.7-4.6-2.2-6.4c-1.5-1.8-3.4-3.3-5.8-4.7s-5-2.5-8-3.4c-3-1-5.9-1.9-8.9-2.7-6.9-2.1-12.9-4.3-18-6.8-5.2-2.4-9.5-5.1-12.9-8.2-3.4-3-6-6.4-7.7-10.2s-2.6-8-2.6-12.6,1.1-10,3.2-14.3c2.1-4.3,5.1-8,9-11.1,3.9-3.1,8.6-5.5,14-7.2,5.5-1.7,11.6-2.6,18.4-2.6s10.3.8,15.6,2.4c5.3,1.6,10.2,3.8,14.7,6.6,1.4.8,2.7,1.8,4.1,2.9s2.7,2.2,3.9,3.3c1.2,1.1,2.2,2.2,2.9,3.2s1.1,1.9,1.1,2.7-.2,1.4-.5,2.1c-.3.7-.8,1.3-1.3,1.9l-2.5,2.7h0c-.9.8-1.7,1.7-2.6,2.7-.9,1-1.8,1.8-2.7,2.6-.9.8-1.7,1.4-2.5,1.9s-1.4.8-1.9.8h0Z"/>
    <path class="st0" d="M467.3,559.1c-1.1,15.5-4.2,29.8-9.2,42.9-6.3,16.5-16,31.5-28.7,44.5-12.7,13-27.2,22.8-43.2,29.3-16.1,6.5-34.2,9.8-53.8,9.8s-38.6-3.1-54.9-9.3c-16.1-6.1-30.6-15.3-43-27.5-5.5-5.3-10.3-11.1-14.6-17.4h-24.6c6.5,12,14.7,22.8,24.6,32.4,29,28.4,66.9,42.8,112.6,42.8s82.5-15.3,112-45.4c26.6-27.2,41.4-61.5,44-102.1h-21.1Z"/>
    <path class="st0" d="M478.6,556.7c-8.8,0-16.7-4.1-21.8-10.6-.7-.9-2,0-1.6.9,3.7,9.3,12.8,15.9,23.4,15.9s19.7-6.6,23.4-15.9c.4-1-1-1.8-1.6-.9-5.1,6.5-12.9,10.6-21.8,10.6h0Z"/>
    <path class="st0" d="M372.7,591.1c2.8,4.8,6.1,9.1,10.1,13,3.9,3.9,8.3,7.3,13.1,10.1,4.8,2.8,9.9,5,15.4,6.5s11.2,2.3,17.2,2.3,5.9-.2,8.8-.6c4.4-7,8.1-14.3,11-22,1-2.7,2-5.5,2.9-8.3-2.1,1.5-4.5,2.8-6.9,3.8-4.9,2.1-10.1,3.2-15.8,3.2s-11-1.1-15.9-3.2c-4.9-2.1-9.1-5-12.7-8.7-3.6-3.7-6.4-8-8.5-12.9-2.1-5-3.1-10.3-3.1-16s1-10.9,3.1-15.9,4.9-9.3,8.5-13c3.6-3.7,7.8-6.6,12.7-8.8s10.2-3.2,15.9-3.2,10.9,1.1,15.8,3.2c4.9,2.1,9.1,5.1,12.7,8.8,2.8,2.8,5.1,6,6.9,9.6,4.3,2.7,9.3,4.2,14.7,4.2s8.4-1,12-2.7c-1.5-5.2-3.6-10.2-6.3-14.7-2.8-4.8-6.2-9.2-10.1-13.1-4-3.9-8.3-7.3-13.1-10.1s-9.9-5-15.4-6.5c-5.5-1.5-11.2-2.3-17.1-2.3s-11.7.8-17.2,2.3c-5.5,1.5-10.6,3.7-15.4,6.5-4.8,2.8-9.1,6.2-13.1,10.1-3.9,4-7.3,8.3-10.1,13.1-2.8,4.8-5,10-6.5,15.5-1.5,5.5-2.3,11.2-2.3,17.2s.8,11.7,2.3,17.2c1.5,5.5,3.7,10.6,6.5,15.4h0Z"/>
  </g>
  <g>
    <path class="st0" d="M544.8,529c0-3.4,0-6.4-.1-9.1s-.2-5.3-.4-8c.7,0,1.5.1,2.3.2.8,0,1.7,0,2.8,0s2.9,0,4.5-.2c1.7,0,3.9-.1,6.6-.1s6.7.3,9.6.9c2.9.6,5.4,1.7,7.5,3.2,2.1,1.5,3.7,3.6,4.9,6.1,1.2,2.6,1.7,5.8,1.7,9.7s-.6,6.5-1.7,9.2-2.7,5.1-4.6,7-4.2,3.4-6.8,4.5c-2.6,1-5.3,1.5-8.2,1.5s-5.7,0-7.9,0-4.1,0-5.7,0h-2.8c-.8,0-1.6,0-2.3.1.2-2.5.3-5.1.4-7.8,0-2.7.1-5.7.1-9.1v-8.4h0ZM553.9,541.9v3.7c0,1.2,0,2.3,0,3.3s0,1.6,0,1.9c.6,0,1.3,0,2.2.1.9,0,1.9,0,3.2,0,4.6,0,8.3-1.6,11-4.7s4.1-7.9,4.1-14.3-.3-4.8-1-6.8-1.6-3.7-2.9-5.1c-1.2-1.4-2.7-2.5-4.4-3.3s-3.7-1.1-5.8-1.1-2.7,0-3.6,0-1.9.1-2.8.2c0,.3,0,.9,0,1.9s0,2.1,0,3.3v20.9h0Z"/>
    <path class="st0" d="M602.4,532.3c1.1-2.8,2.4-4.9,3.9-6.2,1.5-1.3,3.3-2,5.4-2s.4,0,.5,0,.3,0,.5,0c-.1.6-.2,1.3-.3,2,0,.7,0,1.5,0,2.5v3c0,.4,0,.7,0,1l-.5.5c-.4-.2-.9-.5-1.4-.6s-1.1-.2-1.8-.2c-1.8,0-3.3.6-4.4,1.8s-1.6,2.6-1.6,4.3v2.5c0,2.5,0,4.9,0,7.1,0,2.2.2,4.3.4,6.4-.5,0-1.2-.1-2-.1h-5.2c-.8,0-1.5,0-2,.1.2-2,.3-4.2.4-6.4s0-4.6,0-7.1v-2.5c0-2.5,0-4.8,0-7,0-2.2-.2-4.4-.4-6.6.7,0,1.4.2,2.1.2.7,0,1.4,0,2.1,0s1.4,0,2.1,0c.7,0,1.4-.1,2.1-.2l-.2,7.5h.1Z"/>
    <path class="st0" d="M620.2,528.2c1.7-1.4,3.6-2.5,5.6-3.2s4-1.1,5.9-1.1,3.2.2,4.5.6,2.6,1,3.6,1.8,1.8,1.8,2.3,3.1c.5,1.3.8,2.8.8,4.6,0,2.6,0,5.1,0,7.3s0,4.5,0,6.7,0,1.8.2,2.3c.1.5.4,1,.7,1.3s.7.5,1.1.6,1,.1,1.6.1v1.5c-1.2.5-2.2.9-3,1.1s-1.7.4-2.7.4c-1.5,0-2.8-.4-3.7-1.1-1-.7-1.7-1.8-2.2-3.2-.9,1.3-2,2.4-3.3,3.1s-2.8,1.2-4.7,1.2-2.9-.2-4-.6-2-1-2.7-1.8-1.2-1.6-1.6-2.6-.5-1.9-.5-2.9.2-2.5.7-3.5c.4-1,1-1.8,1.8-2.5.8-.7,1.8-1.3,2.9-1.8s2.4-.9,3.8-1.2c1.7-.4,3.1-.8,4.1-1.1s1.8-.6,2.2-.9.8-.7,1-1,.2-.8.2-1.3c0-1.5-.5-2.7-1.6-3.8s-2.5-1.6-4.3-1.6-1.4,0-2.2.3c-.7.2-1.5.4-2.1.8-.7.3-1.3.7-1.8,1.1s-1,.8-1.3,1.3h-.4l-.8-3.7h0ZM634.8,544.9c0-1.8,0-3.1,0-4,0-.9,0-1.7,0-2.4-.9.5-1.8.9-2.7,1.2-1,.3-1.8.7-2.7,1.2-.8.5-1.5,1.1-2,1.9s-.8,2-.8,3.6.3,2.7,1,3.5c.6.8,1.5,1.2,2.5,1.2s2.5-.5,3.3-1.5c.8-1,1.3-2.5,1.3-4.5h0Z"/>
    <path class="st0" d="M654,550.2c0-1.4.5-2.6,1.5-3.6,1-1,2.2-1.5,3.6-1.5s2.6.5,3.6,1.5,1.5,2.2,1.5,3.6-.5,2.5-1.5,3.5c-1,.9-2.2,1.4-3.6,1.4s-2.6-.5-3.6-1.4-1.5-2.1-1.5-3.5Z"/>
    <path class="st0" d="M704.9,546.6c0,3.2.2,5.8.4,7.6-.7,0-1.5-.1-2.3-.1h-5.5c-.8,0-1.6,0-2.3.1.2-2.5.3-5.1.4-7.8,0-2.7.1-5.7.1-9.1v-8.4c0-3.4,0-6.4-.1-9.1s-.2-5.3-.4-8c.7,0,1.5.1,2.3.2.8,0,1.7,0,2.8,0s2,0,2.8,0,1.6-.1,2.3-.2c-.2,1.2-.3,3.1-.4,5.5s0,5.2,0,8.2v5.9c1.4-1.6,2.9-3.4,4.5-5.4,1.6-2,3.1-3.8,4.6-5.7,1.5-1.8,2.8-3.5,4-5.1,1.2-1.5,2-2.7,2.6-3.5.6,0,1.2.1,1.7.2.6,0,1.2,0,1.7,0s1.2,0,1.8,0,1.2-.1,1.9-.2c-.7.7-1.8,1.8-3.2,3.4-1.4,1.6-3,3.2-4.6,5-1.6,1.8-3.2,3.6-4.7,5.3-1.5,1.7-2.6,3-3.5,4,1.3,2,2.8,4.2,4.4,6.7,1.6,2.4,3.2,4.8,4.8,7.1s3,4.5,4.4,6.4,2.4,3.4,3.3,4.4c-1.2,0-2.3-.1-3.2-.1h-5.5c-.9,0-1.8,0-2.7.1-2.1-3.1-4.2-6.3-6.2-9.5-2-3.2-4.1-6.4-6.2-9.6h-.1c0,4.5,0,8.3,0,11.5h0Z"/>
    <path class="st0" d="M735.1,528.2c1.7-1.4,3.6-2.5,5.6-3.2s4-1.1,5.9-1.1,3.2.2,4.5.6,2.6,1,3.6,1.8,1.8,1.8,2.3,3.1c.5,1.3.8,2.8.8,4.6,0,2.6,0,5.1,0,7.3,0,2.2,0,4.5,0,6.7s0,1.8.2,2.3c.1.5.4,1,.7,1.3s.7.5,1.1.6,1,.1,1.6.1v1.5c-1.2.5-2.2.9-3,1.1s-1.7.4-2.7.4c-1.5,0-2.8-.4-3.7-1.1-1-.7-1.7-1.8-2.2-3.2-.9,1.3-2,2.4-3.3,3.1s-2.8,1.2-4.7,1.2-2.9-.2-4-.6-2-1-2.7-1.8-1.2-1.6-1.6-2.6-.5-1.9-.5-2.9.2-2.5.7-3.5c.4-1,1-1.8,1.8-2.5.8-.7,1.8-1.3,2.9-1.8s2.4-.9,3.8-1.2c1.7-.4,3.1-.8,4.1-1.1s1.8-.6,2.2-.9.8-.7,1-1,.2-.8.2-1.3c0-1.5-.5-2.7-1.6-3.8s-2.5-1.6-4.3-1.6-1.4,0-2.2.3c-.7.2-1.5.4-2.1.8-.7.3-1.3.7-1.8,1.1s-1,.8-1.3,1.3h-.4l-.8-3.7h0ZM749.7,544.9c0-1.8,0-3.1,0-4,0-.9,0-1.7,0-2.4-.9.5-1.8.9-2.7,1.2-1,.3-1.8.7-2.7,1.2-.8.5-1.5,1.1-2,1.9-.5.8-.8,2-.8,3.6s.3,2.7,1,3.5c.6.8,1.5,1.2,2.5,1.2s2.5-.5,3.3-1.5c.8-1,1.3-2.5,1.3-4.5h0Z"/>
    <path class="st0" d="M784.6,526.6c0,.5,0,1,.2,1.5h-5.4c0,.8-.2,1.9-.2,3.1s0,2.5-.1,3.8,0,2.5,0,3.7,0,2.2,0,3c0,2.1,0,3.9.2,5.2,0,1.3.3,2.3.5,3,.2.7.6,1.2,1,1.4.5.2,1,.4,1.7.4s1.3,0,1.7-.2.7-.3,1.1-.5v2.5c-.8.4-1.8.7-3.1,1-1.2.3-2.4.4-3.6.4-5.2,0-7.8-3.1-7.8-9.4s0-2.5,0-4,0-3,.2-4.6.1-3.1.2-4.7c0-1.5,0-3,0-4.3h-4.3c.1-.4.2-1,.2-1.5s0-1-.2-1.7l4.3.2c0-1.3,0-2.5,0-3.6s0-2.4-.2-4c1.4-.6,2.8-1.2,4.2-1.8,1.4-.6,2.8-1.3,4.2-2l.6.4c0,.7-.2,1.4-.2,2.3s-.1,1.8-.2,2.8,0,2-.1,3c0,1,0,2,0,2.9h5.4c-.1.5-.2,1-.2,1.5h0Z"/>
    <path class="st0" d="M792.6,518.1c0-3.4-.2-6.8-.4-10.2.5,0,1.2.1,2,.2s1.7,0,2.6,0,1.8,0,2.6,0,1.5-.1,2-.2c-.2,3.5-.3,6.9-.4,10.2s-.1,7.1-.1,11.1h.1c1.1-1.6,2.4-2.9,3.9-3.9s3.3-1.4,5.3-1.4c3.1,0,5.5.9,7.1,2.7s2.5,4.7,2.5,8.7,0,3.9-.1,5.5-.1,3.2-.1,4.8,0,2.7,0,4.3c0,1.5.1,3,.2,4.5-.5,0-1.2-.1-2-.1h-5.2c-.8,0-1.5,0-2,.1.3-2.1.5-4.7.6-7.5,0-2.9.1-6.2.1-9.9s-.4-4.5-1.3-5.7-2.1-1.8-3.7-1.8-3.2.8-4.1,2.4c-.9,1.6-1.3,3.8-1.3,6.7v2.5c0,.6,0,1.4,0,2.5,0,1.1,0,2.3,0,3.6,0,1.3,0,2.6.2,3.9s.1,2.5.2,3.5c-.5,0-1.2-.1-2-.1h-5.2c-.8,0-1.5,0-2,.1.2-3.3.3-6.7.4-10,0-3.4.1-7.1.1-11.1v-4c0-4,0-7.7-.1-11.1h0Z"/>
    <path class="st0" d="M837.4,539.5c0,1.6.2,3.2.5,4.6s.8,2.7,1.5,3.7c.7,1,1.5,1.9,2.6,2.5,1,.6,2.3.9,3.7.9,2.8,0,5.4-.9,7.6-2.8l.7.5-1.3,3.5c-1,.8-2.3,1.4-3.7,1.9-1.4.5-3.3.7-5.7.7s-3.9-.3-5.7-.8c-1.8-.5-3.4-1.5-4.8-2.7s-2.5-2.9-3.3-4.8-1.2-4.3-1.2-7,.4-5,1.1-7c.7-2,1.7-3.6,3-4.9,1.3-1.3,2.8-2.3,4.5-3,1.7-.7,3.6-1,5.7-1,4.1,0,7.2,1.2,9.3,3.6s3.2,5.8,3.2,10.1v1.3c0,.4,0,.6,0,.7h-17.7ZM846.8,536.8c0-3.1-.5-5.5-1.1-7.4-.7-1.8-1.8-2.8-3.4-2.8s-1.7.3-2.3.9c-.6.6-1.1,1.4-1.5,2.4-.4,1-.7,2-.8,3.3-.2,1.2-.3,2.4-.3,3.6h9.5Z"/>
    <path class="st0" d="M872.2,532.3c1.1-2.8,2.4-4.9,3.9-6.2,1.5-1.3,3.3-2,5.4-2s.4,0,.5,0,.3,0,.5,0c-.1.6-.2,1.3-.3,2,0,.7,0,1.5,0,2.5v3c0,.4,0,.7,0,1l-.5.5c-.4-.2-.9-.5-1.4-.6s-1.1-.2-1.8-.2c-1.8,0-3.3.6-4.4,1.8s-1.6,2.6-1.6,4.3v2.5c0,2.5,0,4.9,0,7.1,0,2.2.2,4.3.4,6.4-.5,0-1.2-.1-2-.1h-5.2c-.8,0-1.5,0-2,.1.2-2,.3-4.2.4-6.4,0-2.2,0-4.6,0-7.1v-2.5c0-2.5,0-4.8,0-7,0-2.2-.2-4.4-.4-6.6.7,0,1.4.2,2.1.2.7,0,1.4,0,2.1,0s1.4,0,2.1,0c.7,0,1.4-.1,2.1-.2l-.2,7.5h.1Z"/>
    <path class="st0" d="M890.8,513c0-1.4.5-2.5,1.4-3.5s2.1-1.4,3.5-1.4,2.5.5,3.5,1.4,1.4,2.1,1.4,3.5-.5,2.5-1.4,3.5c-1,.9-2.1,1.4-3.5,1.4s-2.5-.5-3.5-1.4c-1-.9-1.4-2.1-1.4-3.5ZM891.5,538.3c0-2.5,0-4.8,0-7,0-2.2-.2-4.4-.4-6.6.6,0,1.2.2,2,.2.8,0,1.6,0,2.6,0,1.9,0,3.5,0,4.6-.3-.2,2.2-.3,4.4-.4,6.6s0,4.5,0,7v2.5c0,2.5,0,4.9,0,7.1,0,2.2.2,4.3.4,6.4-.5,0-1.2-.1-2-.1h-5.2c-.8,0-1.5,0-2,.1.2-2,.3-4.2.4-6.4,0-2.2,0-4.6,0-7.1v-2.5Z"/>
    <path class="st0" d="M919.3,529.3c1.2-1.7,2.5-3.1,4-4,1.5-.9,3.3-1.4,5.3-1.4,3.1,0,5.5.9,7.1,2.7s2.5,4.7,2.5,8.7,0,3.9-.1,5.5-.1,3.2-.1,4.8,0,2.7,0,4.3c0,1.5.1,3,.2,4.5-.5,0-1.2-.1-2-.1h-5.2c-.8,0-1.5,0-2,.1.3-2.1.5-4.7.6-7.5,0-2.9.1-6.2.1-9.9s-.4-4.5-1.3-5.7-2.1-1.8-3.7-1.8-3.2.8-4.1,2.4c-.9,1.6-1.3,3.8-1.3,6.7v2.5c0,2.5,0,4.9,0,7.1s.2,4.3.4,6.4c-.5,0-1.2-.1-2-.1h-5.2c-.8,0-1.5,0-2,.1.2-2,.3-4.2.4-6.4,0-2.2,0-4.6,0-7.1v-2.5c0-2.5,0-4.8,0-7,0-2.2-.2-4.4-.4-6.6.7,0,1.5.2,2.2.2.7,0,1.5,0,2.2,0s1.5,0,2.2,0c.7,0,1.5-.1,2.3-.2l-.2,4.6h.1,0Z"/>
    <path class="st0" d="M562.6,607.7c2.1-5.2,4.2-10.5,6.2-15.7,2-5.3,3.8-10.3,5.4-15.2,1,.2,1.9.3,2.7.3s1.7,0,2.7-.3c-1,2.4-2.3,5.3-3.7,8.7s-2.9,7-4.5,10.8c-1.6,3.8-3.1,7.7-4.6,11.6s-2.9,7.6-4.1,11.1c-.8,0-1.7-.1-2.7-.1s-1.9,0-2.7.1c-.6-1.6-1.4-3.6-2.2-6s-1.8-4.8-2.8-7.5c-1-2.6-2.1-5.3-3.2-8.1s-2.2-5.4-3.2-8c-1-2.6-2-5-2.9-7.2-.9-2.2-1.7-4.1-2.3-5.7.9,0,1.9.2,2.8.2.9,0,1.8,0,2.7,0s1.8,0,2.7,0,1.8-.1,2.7-.2c.7,2.3,1.5,4.7,2.4,7.3.9,2.5,1.8,5.1,2.7,7.8.9,2.7,1.9,5.3,2.9,8,1,2.7,2,5.3,2.9,7.9h0Z"/>
    <path class="st0" d="M584.9,577.9c0-1.3.5-2.5,1.4-3.5s2.1-1.4,3.5-1.4,2.5.5,3.5,1.4,1.4,2.1,1.4,3.5-.5,2.5-1.4,3.5c-1,.9-2.1,1.4-3.5,1.4s-2.5-.5-3.5-1.4c-1-.9-1.4-2.1-1.4-3.5ZM585.6,603.2c0-2.5,0-4.8,0-7,0-2.2-.2-4.4-.4-6.6.6,0,1.2.2,2,.2.8,0,1.6,0,2.6,0,1.9,0,3.5,0,4.6-.3-.2,2.2-.3,4.4-.4,6.6s0,4.5,0,7v2.5c0,2.5,0,4.9,0,7.1,0,2.2.2,4.3.4,6.4-.5,0-1.2-.1-2-.1h-5.2c-.8,0-1.5,0-2,.1.2-2,.3-4.2.4-6.4,0-2.2,0-4.6,0-7.1v-2.5Z"/>
    <path class="st0" d="M613.4,594.1c1.2-1.7,2.5-3.1,4-4,1.5-.9,3.3-1.4,5.3-1.4,3.1,0,5.5.9,7.1,2.7s2.5,4.7,2.5,8.7,0,3.9-.1,5.5-.1,3.2-.1,4.8,0,2.7,0,4.3c0,1.5.1,3,.2,4.5-.5,0-1.2-.1-2-.1h-5.2c-.8,0-1.5,0-2,.1.3-2.1.5-4.7.6-7.5,0-2.9.1-6.2.1-9.9s-.4-4.5-1.3-5.7-2.1-1.8-3.7-1.8-3.2.8-4.1,2.4c-.9,1.6-1.3,3.8-1.3,6.7v2.5c0,2.5,0,4.9,0,7.1,0,2.2.2,4.3.4,6.4-.5,0-1.2-.1-2-.1h-5.2c-.8,0-1.5,0-2,.1.2-2,.3-4.2.4-6.4,0-2.2,0-4.6,0-7.1v-2.5c0-2.5,0-4.8,0-7,0-2.2-.2-4.4-.4-6.6.7,0,1.5.2,2.2.2.7,0,1.5,0,2.2,0s1.5,0,2.2,0c.7,0,1.5-.1,2.3-.2l-.2,4.6h.1,0Z"/>
    <path class="st0" d="M642.3,593c1.7-1.4,3.6-2.5,5.6-3.2s4-1.1,5.9-1.1,3.2.2,4.5.6,2.6,1,3.6,1.8,1.8,1.8,2.3,3.1c.5,1.3.8,2.8.8,4.6,0,2.6,0,5.1,0,7.3,0,2.2,0,4.5,0,6.7s0,1.8.2,2.3c.1.5.4,1,.7,1.3s.7.5,1.1.6,1,.1,1.6.1v1.5c-1.2.5-2.2.9-3,1.1s-1.7.4-2.7.4c-1.5,0-2.8-.4-3.7-1.1-1-.7-1.7-1.8-2.2-3.2-.9,1.3-2,2.4-3.3,3.1s-2.8,1.2-4.7,1.2-2.9-.2-4-.6-2-1-2.7-1.8-1.2-1.6-1.6-2.6-.5-1.9-.5-2.9.2-2.5.7-3.5c.4-1,1-1.8,1.8-2.5.8-.7,1.8-1.3,2.9-1.8s2.4-.9,3.8-1.2c1.7-.4,3.1-.8,4.1-1.1s1.8-.6,2.2-.9.8-.7,1-1,.2-.8.2-1.3c0-1.5-.5-2.7-1.6-3.8s-2.5-1.6-4.3-1.6-1.4,0-2.2.3c-.7.2-1.5.4-2.1.8-.7.3-1.3.7-1.8,1.1s-1,.8-1.3,1.3h-.4l-.8-3.7h0ZM656.8,609.8c0-1.8,0-3.1,0-4,0-.9,0-1.7,0-2.4-.9.5-1.8.9-2.7,1.2-1,.3-1.8.7-2.7,1.2-.8.5-1.5,1.1-2,1.9s-.8,2-.8,3.6.3,2.7,1,3.5c.6.8,1.5,1.2,2.5,1.2s2.5-.5,3.3-1.5c.8-1,1.3-2.5,1.3-4.5h0Z"/>
    <path class="st0" d="M677.8,613.4c.4.6.9,1.1,1.5,1.6s1.3.8,2.1,1.1c.8.3,1.7.4,2.8.4s2.5-.4,3.3-1.1,1.2-1.5,1.2-2.4-.3-1.7-1-2.3c-.7-.6-1.6-1.1-2.6-1.6-1-.5-2.2-1-3.4-1.5s-2.4-1.1-3.4-1.9-1.9-1.7-2.6-2.9c-.7-1.2-1-2.6-1-4.4s.3-3.2,1-4.5c.6-1.2,1.5-2.3,2.5-3.1,1-.8,2.2-1.4,3.5-1.8s2.6-.6,3.8-.6,3.2.2,4.6.7c1.3.5,2.7,1.2,4.1,2.2-.4.8-.7,1.7-.9,2.7-.2,1-.4,1.9-.6,2.8h-1.7c-.1-.5-.3-1-.6-1.6s-.7-1.2-1.2-1.7-1.1-1-1.8-1.3c-.7-.3-1.5-.5-2.5-.5s-2.3.3-3.1,1c-.8.7-1.3,1.5-1.3,2.6s.4,1.8,1.1,2.4c.7.6,1.6,1.1,2.7,1.6s2.2.9,3.5,1.3c1.3.5,2.4,1,3.5,1.8,1.1.7,2,1.7,2.7,2.8.7,1.2,1.1,2.6,1.1,4.4s-.3,3.4-1,4.7c-.7,1.3-1.5,2.4-2.7,3.2-1.1.8-2.4,1.5-3.8,1.8s-2.9.5-4.5.5-3.5-.3-5-.8c-1.5-.5-2.7-1.1-3.5-1.7.5-2,.8-3.9.9-5.9h1.5c.2.7.6,1.3,1,1.9h0Z"/>
    <path class="st0" d="M723.3,593.5c-1-1.1-2.4-1.7-4.3-1.7s-4.3,1.1-5.5,3.3c-1.2,2.2-1.8,5.3-1.8,9.3s.8,6.6,2.3,8.6c1.6,2,3.8,3,6.8,3s2.5-.3,3.7-.9,2.1-1.3,2.7-2l.7.6c-.3.6-.5,1.2-.7,1.8-.2.6-.4,1.2-.6,1.8-.9.7-2,1.3-3.4,1.8-1.4.5-3,.7-4.9.7-3,0-5.5-.4-7.6-1.3s-3.7-2-5-3.5c-1.2-1.5-2.1-3.2-2.7-5-.5-1.9-.8-3.7-.8-5.6s.4-4.3,1.1-6.3,1.8-3.6,3.3-5c1.4-1.4,3.1-2.5,5.1-3.3s4.2-1.2,6.7-1.2,4.3.3,5.9.8c1.6.5,3.2,1.2,4.7,2.1-.5.8-1,1.8-1.4,3s-.8,2.3-1,3.4h-1.5c-.3-1.8-1-3.3-1.9-4.5h0Z"/>
    <path class="st0" d="M735.5,605.2c0-2.8.4-5.2,1.3-7.2s2-3.8,3.3-5.1c1.4-1.4,3-2.4,4.8-3.1,1.8-.7,3.7-1,5.6-1,4.8,0,8.5,1.3,11.1,4.1s3.9,6.4,3.9,11-.4,4.8-1.1,6.8-1.8,3.7-3.1,5.1c-1.3,1.4-2.9,2.5-4.8,3.2s-3.9,1-6.1,1-3.7-.2-5.5-.7-3.4-1.3-4.8-2.5c-1.4-1.2-2.6-2.7-3.5-4.6-.9-1.9-1.3-4.2-1.3-7h0ZM756.5,602.9c0-3.6-.5-6.4-1.3-8.4-.9-2-2.4-3-4.5-3s-3.4,1.1-4.5,3.3c-1.1,2.2-1.6,5.7-1.6,10.4s0,3.3.3,4.8.5,2.8,1,3.8c.5,1.1,1.1,1.9,1.8,2.6.8.6,1.7.9,2.9.9,3.9,0,5.9-4.8,5.9-14.5h0Z"/>
    <path class="st0" d="M807.1,579.8c-1.9,0-3.4.5-4.6,1.7s-1.8,2.4-1.8,3.9.5,2.8,1.4,3.7c.9,1,2.1,1.8,3.5,2.6,1.4.8,2.9,1.5,4.5,2.2s3.1,1.6,4.5,2.7c1.4,1,2.5,2.3,3.5,3.8.9,1.5,1.4,3.4,1.4,5.8s-.4,3.9-1.2,5.6c-.8,1.7-1.9,3.2-3.3,4.4-1.4,1.2-3.2,2.1-5.1,2.8s-4.2,1-6.7,1-4.2-.2-5.9-.7c-1.7-.5-3.1-1.1-4-1.8.4-1.4.8-2.8,1-3.9s.5-2.5.7-3.9h1.2c.2.9.5,1.8.9,2.6.5.8,1,1.5,1.7,2.1.7.6,1.5,1.1,2.5,1.5,1,.3,2.1.5,3.3.5,2.5,0,4.3-.6,5.5-1.8s1.8-2.7,1.8-4.4-.5-2.8-1.3-3.8c-.9-1-2-1.9-3.4-2.6s-2.8-1.5-4.4-2.2c-1.6-.7-3.1-1.6-4.4-2.6s-2.5-2.3-3.4-3.8c-.9-1.5-1.3-3.4-1.3-5.8s.4-4,1.1-5.7c.8-1.6,1.8-3,3-4.1,1.3-1.1,2.7-2,4.4-2.5,1.7-.6,3.4-.9,5.3-.9s4.2.3,5.8.8c1.7.5,3.1,1.3,4.3,2.2-.4.9-.7,1.9-1,2.7-.3.9-.6,2-1,3.3h-.9c-1.3-3.5-3.8-5.3-7.5-5.3h0Z"/>
    <path class="st0" d="M828.3,593c1.7-1.4,3.6-2.5,5.6-3.2s4-1.1,5.9-1.1,3.2.2,4.5.6,2.6,1,3.6,1.8,1.8,1.8,2.3,3.1c.5,1.3.8,2.8.8,4.6,0,2.6,0,5.1,0,7.3s0,4.5,0,6.7,0,1.8.2,2.3c.1.5.4,1,.7,1.3s.7.5,1.1.6,1,.1,1.6.1v1.5c-1.2.5-2.2.9-3,1.1s-1.7.4-2.7.4c-1.5,0-2.8-.4-3.7-1.1-1-.7-1.7-1.8-2.2-3.2-.9,1.3-2,2.4-3.3,3.1s-2.8,1.2-4.7,1.2-2.9-.2-4-.6-2-1-2.7-1.8-1.2-1.6-1.6-2.6-.5-1.9-.5-2.9.2-2.5.7-3.5c.4-1,1-1.8,1.8-2.5.8-.7,1.8-1.3,2.9-1.8s2.4-.9,3.8-1.2c1.7-.4,3.1-.8,4.1-1.1s1.8-.6,2.2-.9.8-.7,1-1,.2-.8.2-1.3c0-1.5-.5-2.7-1.6-3.8s-2.5-1.6-4.3-1.6-1.4,0-2.2.3c-.7.2-1.5.4-2.1.8-.7.3-1.3.7-1.8,1.1s-1,.8-1.3,1.3h-.4l-.8-3.7h0ZM842.9,609.8c0-1.8,0-3.1,0-4,0-.9,0-1.7,0-2.4-.9.5-1.8.9-2.7,1.2-1,.3-1.8.7-2.7,1.2-.8.5-1.5,1.1-2,1.9s-.8,2-.8,3.6.3,2.7,1,3.5c.6.8,1.5,1.2,2.5,1.2s2.5-.5,3.3-1.5c.8-1,1.3-2.5,1.3-4.5h0Z"/>
    <path class="st0" d="M862.2,593c1.7-1.4,3.6-2.5,5.6-3.2s4-1.1,5.9-1.1,3.2.2,4.5.6,2.6,1,3.6,1.8,1.8,1.8,2.3,3.1c.5,1.3.8,2.8.8,4.6,0,2.6,0,5.1,0,7.3,0,2.2,0,4.5,0,6.7s0,1.8.2,2.3c.1.5.4,1,.7,1.3s.7.5,1.1.6,1,.1,1.6.1v1.5c-1.2.5-2.2.9-3,1.1s-1.7.4-2.7.4c-1.5,0-2.8-.4-3.7-1.1-1-.7-1.7-1.8-2.2-3.2-.9,1.3-2,2.4-3.3,3.1s-2.8,1.2-4.7,1.2-2.9-.2-4-.6-2-1-2.7-1.8-1.2-1.6-1.6-2.6-.5-1.9-.5-2.9.2-2.5.7-3.5c.4-1,1-1.8,1.8-2.5.8-.7,1.8-1.3,2.9-1.8s2.4-.9,3.8-1.2c1.7-.4,3.1-.8,4.1-1.1,1-.3,1.8-.6,2.2-.9s.8-.7,1-1,.2-.8.2-1.3c0-1.5-.5-2.7-1.6-3.8s-2.5-1.6-4.3-1.6-1.4,0-2.2.3c-.7.2-1.5.4-2.1.8-.7.3-1.3.7-1.8,1.1s-1,.8-1.3,1.3h-.4l-.8-3.7h0ZM876.8,609.8c0-1.8,0-3.1,0-4,0-.9,0-1.7,0-2.4-.9.5-1.8.9-2.7,1.2-1,.3-1.8.7-2.7,1.2-.8.5-1.5,1.1-2,1.9s-.8,2-.8,3.6.3,2.7,1,3.5c.6.8,1.5,1.2,2.5,1.2s2.5-.5,3.3-1.5c.8-1,1.3-2.5,1.3-4.5h0Z"/>
    <path class="st0" d="M911.8,600.3c1.2-3.6,2.4-7.2,3.6-10.8.5,0,.9.2,1.3.2.4,0,.8,0,1.2,0s.8,0,1.2,0,.9-.1,1.3-.2c-.7,1.6-1.5,3.5-2.4,5.6-1,2.1-1.9,4.4-3,7-1,2.5-2.1,5.2-3.2,8.1s-2.1,5.9-3,9c-.6,0-1.1-.1-1.7-.1h-3.3c-.5,0-1.1,0-1.7.1-.8-2.3-1.7-4.9-2.7-7.8-1-2.8-2-5.6-3-8.3-1-2.7-1.9-5.3-2.8-7.7-.9-2.4-1.6-4.3-2.2-5.8.9,0,1.7.2,2.5.2.8,0,1.6,0,2.4,0s1.5,0,2.3,0,1.5-.1,2.3-.2c1.1,3.6,2.2,7.2,3.3,10.8,1.1,3.6,2.3,7.2,3.5,10.8h.1c1.3-3.6,2.6-7.2,3.8-10.8h0Z"/>
    <path class="st0" d="M934.9,604.4c0,1.6.2,3.2.5,4.6s.8,2.7,1.5,3.7c.7,1,1.5,1.9,2.6,2.5,1,.6,2.3.9,3.7.9,2.8,0,5.4-.9,7.6-2.8l.7.5-1.3,3.5c-1,.8-2.3,1.4-3.7,1.9-1.4.5-3.3.7-5.7.7s-3.9-.3-5.7-.8c-1.8-.5-3.4-1.5-4.8-2.7s-2.5-2.9-3.3-4.8-1.2-4.3-1.2-7,.4-5,1.1-7c.7-2,1.7-3.6,3-4.9,1.3-1.3,2.8-2.3,4.5-3,1.7-.7,3.6-1,5.7-1,4.1,0,7.2,1.2,9.3,3.6s3.2,5.8,3.2,10.1v1.3c0,.4,0,.6,0,.7h-17.7ZM944.3,601.6c0-3.1-.5-5.5-1.1-7.4-.7-1.8-1.8-2.8-3.4-2.8s-1.7.3-2.3.9c-.6.6-1.1,1.4-1.5,2.4-.4,1-.7,2-.8,3.3-.2,1.2-.3,2.4-.3,3.6h9.5Z"/>
    <path class="st0" d="M988,598c0,4,0,7.7.1,11.1,0,3.4.2,6.7.4,10-.5,0-1.2-.1-2-.1h-5c-.8,0-1.3,0-1.8.1,0,0,0-.3.1-.8s0-1,.2-1.5.1-1.1.2-1.6,0-.8,0-.9h-.1c-.8,1.7-1.8,3.2-3.2,4.2-1.3,1-3.2,1.5-5.6,1.5s-3.9-.4-5.3-1.2c-1.5-.8-2.7-1.9-3.6-3.4-.9-1.4-1.6-3.1-2.1-5s-.7-4-.7-6.2.3-4.3.9-6.1c.6-1.9,1.5-3.5,2.5-4.9,1.1-1.4,2.3-2.5,3.8-3.2,1.5-.8,3-1.2,4.7-1.2s3.5.4,5,1.3,2.5,2,3.2,3.3h.1c0-3.7,0-7.2-.1-10.4s-.2-6.6-.4-10.1c.5,0,1.2.2,2,.2.8,0,1.7,0,2.6,0s1.8,0,2.6,0c.8,0,1.5-.1,2-.2-.2,3.5-.3,6.8-.4,10.2s-.1,7.1-.1,11.1v4h0ZM968.7,605c0,2.1.1,3.9.4,5.3.3,1.4.7,2.6,1.2,3.5s1.1,1.5,1.7,1.9c.6.4,1.3.6,2,.6,1.7,0,3.1-1,4.2-2.9,1.1-1.9,1.6-5.1,1.6-9.5s-.5-6.6-1.5-8.3c-1-1.7-2.3-2.6-3.9-2.6s-1.3.2-2,.5-1.2,1-1.8,1.9c-.5.9-1,2.2-1.3,3.7-.3,1.6-.5,3.5-.5,5.8h0Z"/>
    <path class="st0" d="M1007,597.2c1.1-2.8,2.4-4.9,3.9-6.2,1.5-1.3,3.3-2,5.4-2s.4,0,.5,0,.3,0,.5,0c-.1.6-.2,1.3-.3,2,0,.7,0,1.5,0,2.5v3c0,.4,0,.7,0,1l-.5.5c-.4-.2-.9-.5-1.4-.6s-1.1-.2-1.8-.2c-1.8,0-3.3.6-4.4,1.8s-1.6,2.6-1.6,4.3v2.5c0,2.5,0,4.9,0,7.1,0,2.2.2,4.3.4,6.4-.5,0-1.2-.1-2-.1h-5.2c-.8,0-1.5,0-2,.1.2-2,.3-4.2.4-6.4,0-2.2,0-4.6,0-7.1v-2.5c0-2.5,0-4.8,0-7,0-2.2-.2-4.4-.4-6.6.7,0,1.4.2,2.1.2.7,0,1.4,0,2.1,0s1.4,0,2.1,0c.7,0,1.4-.1,2.1-.2l-.2,7.5h.1Z"/>
    <path class="st0" d="M1024.7,593c1.7-1.4,3.6-2.5,5.6-3.2s4-1.1,5.9-1.1,3.2.2,4.5.6,2.6,1,3.6,1.8c1,.8,1.8,1.8,2.3,3.1.6,1.3.8,2.8.8,4.6,0,2.6,0,5.1,0,7.3,0,2.2,0,4.5,0,6.7s0,1.8.2,2.3c.1.5.4,1,.7,1.3.3.3.7.5,1.1.6s1,.1,1.6.1v1.5c-1.2.5-2.2.9-3,1.1-.8.2-1.7.4-2.7.4-1.5,0-2.8-.4-3.7-1.1-.9-.7-1.7-1.8-2.2-3.2-.9,1.3-2,2.4-3.3,3.1s-2.8,1.2-4.7,1.2-2.9-.2-4-.6-2-1-2.7-1.8-1.2-1.6-1.6-2.6-.5-1.9-.5-2.9.2-2.5.7-3.5c.4-1,1-1.8,1.9-2.5.8-.7,1.8-1.3,2.9-1.8s2.4-.9,3.8-1.2c1.7-.4,3.1-.8,4.1-1.1s1.8-.6,2.2-.9.8-.7.9-1c.1-.4.2-.8.2-1.3,0-1.5-.5-2.7-1.6-3.8-1.1-1-2.5-1.6-4.3-1.6s-1.4,0-2.2.3c-.7.2-1.4.4-2.1.8-.7.3-1.3.7-1.8,1.1s-1,.8-1.3,1.3h-.4l-.8-3.7h0ZM1039.3,609.8c0-1.8,0-3.1,0-4,0-.9,0-1.7,0-2.4-.9.5-1.8.9-2.7,1.2-1,.3-1.8.7-2.7,1.2s-1.5,1.1-2,1.9-.8,2-.8,3.6.3,2.7.9,3.5c.6.8,1.5,1.2,2.6,1.2s2.4-.5,3.3-1.5c.8-1,1.3-2.5,1.3-4.5h0Z"/>
  </g>
  <g>
    <path class="st0" d="M547.3,676.2c0-2.1.4-4.1,1.2-6s1.9-3.5,3.3-4.9,3.2-2.5,5.2-3.3,4.3-1.2,6.8-1.2,4.5.3,6.4,1c2,.6,3.7,1.6,5.2,2.8s2.6,2.9,3.5,4.8,1.3,4.2,1.3,6.8-.4,4.2-1.2,6-2,3.5-3.4,4.9c-1.5,1.4-3.2,2.5-5.2,3.3s-4.2,1.2-6.7,1.2-4.4-.3-6.4-.8-3.7-1.5-5.2-2.7-2.7-2.8-3.5-4.8c-.9-1.9-1.3-4.3-1.3-7h0ZM573.2,675.2c0-1.9-.2-3.5-.7-5-.5-1.5-1.1-2.7-1.9-3.8-.8-1-1.8-1.8-3-2.4s-2.4-.8-3.8-.8-2.8.3-4,1.1-2.2,1.7-3,2.9-1.4,2.6-1.8,4.2c-.4,1.6-.6,3.4-.6,5.2s.2,4.2.7,5.8c.5,1.6,1.2,2.9,2,3.8.8,1,1.8,1.7,2.9,2.1,1.1.4,2.2.7,3.5.7s2.5-.3,3.7-.8,2.2-1.4,3.1-2.5,1.6-2.5,2.1-4.3c.5-1.7.8-3.8.8-6.1h0Z"/>
    <path class="st0" d="M605.3,676.2c0,2.8,0,5.4,0,7.8,0,2.4.1,4.7.3,7-.4,0-.8,0-1.4,0h-3.5c-.5,0-.9,0-1.2,0,0,0,0-.2,0-.6,0-.3,0-.7.1-1.1,0-.4,0-.8.1-1.1s0-.6,0-.7h0c-.5,1.2-1.3,2.2-2.2,2.9s-2.3,1.1-3.9,1.1-2.7-.3-3.8-.8-1.9-1.3-2.5-2.3c-.7-1-1.2-2.2-1.5-3.5-.3-1.3-.5-2.8-.5-4.4s.2-3,.7-4.3c.4-1.3,1-2.5,1.8-3.4s1.6-1.7,2.7-2.3c1-.5,2.1-.8,3.3-.8s2.5.3,3.5.9c1,.6,1.8,1.4,2.3,2.3h0c0-2.6,0-5,0-7.3s-.1-4.7-.3-7.1c.4,0,.8.1,1.4.2.6,0,1.2,0,1.8,0s1.2,0,1.8,0c.6,0,1,0,1.4-.2-.1,2.4-.2,4.8-.3,7.2s0,5,0,7.8v2.8h0ZM591.8,681.1c0,1.5,0,2.7.3,3.7.2,1,.5,1.8.8,2.4.3.6.7,1.1,1.2,1.3.4.3.9.4,1.4.4,1.2,0,2.2-.7,2.9-2s1.2-3.6,1.2-6.7-.4-4.6-1.1-5.8c-.7-1.2-1.6-1.8-2.8-1.8s-.9.1-1.4.4-.9.7-1.2,1.4-.7,1.5-.9,2.6c-.2,1.1-.4,2.5-.4,4.1Z"/>
    <path class="st0" d="M611.5,681.2c0-1.9.3-3.6.9-5s1.4-2.6,2.3-3.6c1-1,2.1-1.7,3.4-2.2,1.3-.5,2.6-.7,4-.7,3.4,0,6,1,7.8,2.8,1.8,1.9,2.8,4.5,2.8,7.7s-.3,3.3-.8,4.8-1.2,2.6-2.2,3.6c-.9,1-2,1.7-3.3,2.2s-2.7.7-4.3.7-2.6-.2-3.8-.5c-1.2-.3-2.4-.9-3.4-1.8s-1.8-1.9-2.4-3.2c-.6-1.3-.9-3-.9-4.9h0ZM626.3,679.6c0-2.5-.3-4.5-1-5.9-.6-1.4-1.7-2.1-3.2-2.1s-2.4.8-3.1,2.3-1.1,4-1.1,7.3,0,2.3.2,3.4c.1,1,.4,1.9.7,2.7s.8,1.4,1.3,1.8c.5.4,1.2.7,2,.7,2.8,0,4.1-3.4,4.1-10.1h0Z"/>
    <path class="st0" d="M644.7,673.4c.8-1.2,1.8-2.1,2.8-2.8,1.1-.7,2.3-1,3.7-1,2.2,0,3.8.6,5,1.9s1.8,3.3,1.8,6.1,0,2.8,0,3.9c0,1.1,0,2.2,0,3.4s0,1.9,0,3,0,2.1.2,3.1c-.4,0-.8,0-1.4,0h-3.6c-.6,0-1,0-1.4,0,.2-1.5.3-3.3.4-5.3,0-2,0-4.3,0-7s-.3-3.1-.9-4-1.5-1.3-2.6-1.3-2.2.6-2.8,1.7c-.6,1.1-.9,2.7-.9,4.7v1.7c0,1.8,0,3.4,0,5,0,1.5.1,3,.3,4.5-.4,0-.8,0-1.4,0h-3.7c-.5,0-1,0-1.4,0,.1-1.4.2-2.9.3-4.5,0-1.5,0-3.2,0-5v-1.7c0-1.8,0-3.4,0-4.9,0-1.5-.1-3.1-.3-4.6.5,0,1,.1,1.5.2.5,0,1,0,1.5,0s1,0,1.5,0,1,0,1.6-.2l-.2,3.2h0,0Z"/>
    <path class="st0" d="M676,671.6c0,.4,0,.7.1,1.1h-3.8c0,.6-.1,1.3-.2,2.2,0,.9,0,1.7,0,2.6,0,.9,0,1.8,0,2.6,0,.8,0,1.5,0,2.1,0,1.5,0,2.7.1,3.6s.2,1.6.4,2.1.4.8.7,1c.3.2.7.3,1.2.3s1,0,1.2-.1.5-.2.8-.3v1.8c-.6.3-1.3.5-2.2.7-.9.2-1.7.3-2.5.3-3.7,0-5.5-2.2-5.5-6.6s0-1.8,0-2.8c0-1,0-2.1.1-3.2,0-1.1,0-2.2.1-3.3s0-2.1,0-3h-3c0-.3.1-.7.1-1s0-.7-.1-1.2h3c0-.8,0-1.6,0-2.4s0-1.7-.1-2.8c1-.4,2-.8,3-1.3,1-.5,2-.9,2.9-1.4l.4.3c0,.5-.1,1-.2,1.6,0,.6,0,1.3-.1,1.9,0,.7,0,1.4,0,2.1s0,1.4,0,2h3.8c0,.3-.1.7-.1,1.1h0Z"/>
    <path class="st0" d="M680.4,681.2c0-1.9.3-3.6.9-5s1.4-2.6,2.3-3.6c1-1,2.1-1.7,3.4-2.2,1.3-.5,2.6-.7,4-.7,3.4,0,6,1,7.8,2.8,1.8,1.9,2.8,4.5,2.8,7.7s-.3,3.3-.8,4.8-1.2,2.6-2.2,3.6c-.9,1-2,1.7-3.3,2.2s-2.7.7-4.3.7-2.6-.2-3.8-.5c-1.2-.3-2.4-.9-3.4-1.8s-1.8-1.9-2.4-3.2c-.6-1.3-.9-3-.9-4.9h0ZM695.2,679.6c0-2.5-.3-4.5-1-5.9-.6-1.4-1.7-2.1-3.2-2.1s-2.4.8-3.1,2.3-1.1,4-1.1,7.3,0,2.3.2,3.4c.1,1,.4,1.9.7,2.7s.8,1.4,1.3,1.8c.5.4,1.2.7,2,.7,2.8,0,4.1-3.4,4.1-10.1h0Z"/>
    <path class="st0" d="M708.2,665.6c0-2.4-.1-4.8-.3-7.2.4,0,.8.1,1.4.2.6,0,1.2,0,1.8,0s1.2,0,1.8,0c.6,0,1,0,1.4-.2-.1,2.4-.2,4.8-.3,7.2s0,5,0,7.8v2.8c0,2.8,0,5.4,0,7.8,0,2.4.1,4.7.3,7-.4,0-.8,0-1.4,0h-3.6c-.6,0-1,0-1.4,0,.1-2.3.2-4.7.3-7s0-5,0-7.8v-2.8c0-2.8,0-5.4,0-7.8h0Z"/>
    <path class="st0" d="M720.7,681.2c0-1.9.3-3.6.9-5s1.4-2.6,2.3-3.6c1-1,2.1-1.7,3.4-2.2,1.3-.5,2.6-.7,4-.7,3.4,0,6,1,7.8,2.8,1.8,1.9,2.8,4.5,2.8,7.7s-.3,3.3-.8,4.8-1.2,2.6-2.2,3.6c-.9,1-2,1.7-3.3,2.2s-2.7.7-4.3.7-2.6-.2-3.8-.5c-1.2-.3-2.4-.9-3.4-1.8s-1.8-1.9-2.4-3.2c-.6-1.3-.9-3-.9-4.9h0ZM735.5,679.6c0-2.5-.3-4.5-1-5.9-.6-1.4-1.7-2.1-3.2-2.1s-2.4.8-3.1,2.3-1.1,4-1.1,7.3,0,2.3.2,3.4c.1,1,.4,1.9.7,2.7s.8,1.4,1.3,1.8c.5.4,1.2.7,2,.7,2.8,0,4.1-3.4,4.1-10.1h0Z"/>
    <path class="st0" d="M762.4,671.8c.7.5,1.3,1.2,1.7,2,.4.8.6,1.7.6,2.8s-.2,2-.6,2.9c-.4.9-1,1.6-1.7,2.3-.7.6-1.6,1.1-2.6,1.5s-2.2.5-3.4.5-.6,0-.9,0-.6,0-1,0-.6.2-.9.5c-.2.3-.4.7-.4,1.1,0,.7.3,1.2.8,1.6.5.4,1.4.6,2.5.7h3.2c2.4,0,4.2.5,5.3,1.4s1.7,2.3,1.7,4.2-.3,3.2-1.1,4.3c-.7,1.2-1.6,2.1-2.7,2.8s-2.3,1.3-3.7,1.6-2.7.5-3.9.5c-2.7,0-4.8-.5-6.3-1.6s-2.3-2.4-2.3-4.2.4-2.5,1.1-3.3,1.8-1.5,3.1-2h0c-.8-.4-1.3-.7-1.8-1.3-.5-.5-.7-1.2-.7-2s.4-1.9,1.1-2.8,1.7-1.5,2.9-1.8h0c-1.8-.5-3.1-1.3-4.1-2.4-1-1.2-1.5-2.7-1.5-4.5s.2-2.1.7-2.9c.5-.9,1.1-1.6,1.9-2.2.8-.6,1.8-1,2.9-1.4s2.4-.5,3.7-.5,1,0,1.6,0,1.1,0,1.6.1c.4,0,.8,0,1.1,0s.8,0,1.3,0c.7,0,1.5,0,2.2,0s1.5,0,2.3,0c0,.2,0,.3,0,.5,0,.2,0,.3,0,.5s0,.3,0,.5c0,.2,0,.3,0,.5l-3.8-.2h-.1c0,0,0,0,0,0ZM761.7,695.5c0-.8-.1-1.5-.4-2-.3-.5-.7-.9-1.2-1.2-.5-.3-1.2-.5-2-.6-.8,0-1.7-.2-2.6-.2-1.5,0-2.5.1-3.1.4-.3.2-.7.6-1.1,1.2s-.6,1.5-.6,2.5.2,1.6.5,2.2.7,1.1,1.2,1.5c.5.4,1.1.7,1.8.9.7.2,1.4.3,2.2.3s1.6-.1,2.2-.4c.7-.3,1.2-.7,1.7-1.1s.8-1,1.1-1.6c.2-.6.4-1.3.4-2h0ZM756,671.4c-2,0-2.9,1.9-2.9,5.7s0,1.8.3,2.4.4,1.2.7,1.6.6.7.9.9c.3.2.7.3,1,.3,1,0,1.7-.4,2.1-1.2s.7-2.2.7-4.2-.3-3.3-.8-4.1-1.2-1.2-1.9-1.2h0Z"/>
    <path class="st0" d="M771.7,666.8c1.6-2,2.9-3.5,3.8-4.6s1.7-1.9,2.2-2.4c.5-.5,1-.8,1.2-1s.6-.2.9-.2c.7,0,1.2.2,1.5.6.3.4.5.8.5,1.3s0,.6-.2.8c-.1.3-.4.6-1,1-.5.4-1.3,1-2.3,1.6s-2.5,1.6-4.4,2.7h-2.4ZM772.3,679.8c0-1.8,0-3.4,0-4.9,0-1.5-.1-3.1-.3-4.6.4,0,.9.1,1.4.2.5,0,1.2,0,1.8,0,1.3,0,2.4,0,3.2-.2-.1,1.5-.2,3.1-.3,4.6,0,1.5,0,3.2,0,4.9v1.7c0,1.8,0,3.4,0,5,0,1.5.1,3,.3,4.5-.4,0-.8,0-1.4,0h-3.7c-.5,0-1,0-1.4,0,.1-1.4.2-2.9.3-4.5,0-1.5,0-3.2,0-5v-1.7h0Z"/>
    <path class="st0" d="M785.9,672.7c1.2-1,2.5-1.7,3.9-2.2,1.4-.5,2.8-.8,4.2-.8s2.2.1,3.2.4,1.8.7,2.5,1.2,1.2,1.3,1.6,2.2.6,2,.6,3.2c0,1.8,0,3.5,0,5.1s0,3.1,0,4.7,0,1.2.2,1.6c0,.4.2.7.5.9s.5.3.8.4.7,0,1.1,0v1c-.8.3-1.5.6-2.1.8-.6.2-1.2.3-1.9.3-1.1,0-1.9-.3-2.6-.8-.7-.5-1.2-1.3-1.5-2.2-.7.9-1.4,1.7-2.3,2.2-.9.5-2,.8-3.3.8s-2-.1-2.8-.4-1.4-.7-1.9-1.2-.9-1.1-1.1-1.8c-.2-.7-.3-1.4-.3-2s.2-1.8.5-2.5.7-1.3,1.3-1.8,1.2-.9,2-1.2c.8-.3,1.7-.6,2.6-.8,1.2-.3,2.2-.5,2.9-.8.7-.2,1.2-.4,1.6-.7.3-.2.6-.5.7-.7s.2-.6.2-1c0-1-.4-1.9-1.1-2.7-.7-.7-1.8-1.1-3-1.1s-1,0-1.5.2c-.5.1-1,.3-1.5.5s-.9.5-1.3.8-.7.6-.9.9h-.3l-.6-2.6h0ZM796.1,684.4c0-1.2,0-2.2,0-2.8s0-1.2,0-1.7c-.6.3-1.2.6-1.9.8s-1.3.5-1.9.8c-.6.3-1,.8-1.4,1.4-.4.6-.5,1.4-.5,2.5s.2,1.9.7,2.4,1,.8,1.8.8,1.7-.4,2.3-1.1c.6-.7.9-1.8.9-3.2h0Z"/>
  </g>
</svg>